<svg xmlns="http://www.w3.org/2000/svg" width="520" height="520" viewBox="0 0 520 520" version="1.1">
	<path d="M 261 46.527 C 202.152 53.977, 151.390 79.295, 119.240 117.232 C 91.949 149.435, 74.549 192.595, 69.394 240.873 L 68.714 247.245 76.607 241.734 C 88.200 233.639, 109.174 221.800, 128.500 212.443 C 188.877 183.210, 256.577 161.229, 316.500 151.402 C 335.848 148.229, 336.053 148.176, 333.879 146.956 C 330.920 145.294, 307.791 144.727, 291.500 145.917 C 233.527 150.152, 166.975 165, 127.283 182.553 L 121.884 184.941 122.541 182.721 C 123.803 178.459, 133.269 161.442, 138.518 154 C 167.168 113.374, 211.307 88.268, 265.227 81.927 C 276.429 80.610, 287.852 81.583, 307.646 85.541 C 341.298 92.269, 372.140 107.749, 390.532 127.140 C 393.850 130.638, 397.466 134.676, 398.569 136.114 L 400.574 138.728 455.537 135.401 C 485.767 133.572, 511.625 132.027, 513 131.970 C 519.944 131.678, 508.588 129.782, 474 125.459 L 436.500 120.771 426 110.631 C 397.987 83.578, 360.309 61.090, 327.085 51.594 C 306.099 45.597, 282.591 43.794, 261 46.527 M 469 143.971 C 462.802 145.229, 460.590 146.075, 460.832 147.095 C 461.686 150.689, 462.901 150.812, 472.777 148.304 C 478.123 146.947, 482.621 145.712, 482.772 145.561 C 482.923 145.410, 482.763 144.547, 482.417 143.643 C 481.663 141.679, 480.104 141.717, 469 143.971 M 489.473 155.339 C 354.396 233.114, 246.703 312.045, 169.811 389.625 C 142.115 417.569, 123.515 439.126, 106.072 463.500 C 97.500 475.478, 98.019 476.067, 112.214 470.465 C 121.002 466.997, 154.152 450.378, 171.448 440.768 L 179.396 436.352 192.640 441.682 C 221.847 453.437, 243.337 457.996, 273 458.728 C 295.605 459.287, 307.877 458.056, 326.500 453.362 C 368.298 442.828, 413.468 413.415, 437.627 381 C 460.691 350.054, 475.326 315.295, 480.568 279.011 C 481.839 270.207, 482.112 263.081, 481.733 248.511 C 481.191 227.669, 479.640 216.983, 474.611 199.421 L 471.438 188.341 492.319 165.604 C 503.803 153.098, 513.030 142.697, 512.823 142.489 C 512.615 142.282, 502.108 148.064, 489.473 155.339 M 417.825 153.832 C 407.004 156.399, 397.860 158.794, 397.505 159.154 C 397.150 159.513, 398.861 161.184, 401.308 162.868 L 405.756 165.928 424.628 160.929 C 435.008 158.180, 444.134 155.708, 444.909 155.436 C 446.729 154.796, 441.361 148.962, 439.063 149.082 C 438.203 149.127, 428.646 151.264, 417.825 153.832 M 335.187 176.867 L 301.873 187.487 304.443 189.536 C 305.856 190.663, 309.491 193.087, 312.521 194.924 L 318.030 198.262 323.765 195.237 C 331.153 191.339, 349.021 184.326, 367.721 177.983 C 375.849 175.226, 383.175 172.702, 384 172.374 C 385.291 171.860, 376.993 168.425, 370.334 166.718 C 369.325 166.459, 353.509 171.027, 335.187 176.867 M 274.500 198.662 C 239.896 213.010, 218.307 223.116, 212.284 227.783 C 210.087 229.486, 210.155 229.546, 220.411 234.930 L 230.754 240.360 238.127 235.778 C 250.956 227.804, 284.631 211.775, 299.500 206.565 C 301.106 206.002, 299.631 204.895, 292 200.941 C 286.775 198.233, 282.050 196.052, 281.500 196.096 C 280.950 196.139, 277.800 197.294, 274.500 198.662 M 188 239.285 C 170.197 249.496, 143.945 265.458, 132.500 273.032 C 119.483 281.646, 103 293.616, 103 294.455 C 103 295.008, 125.684 313, 126.383 313 C 126.718 313, 130.205 310.051, 134.132 306.448 C 147.282 294.379, 184.715 267.764, 207.960 253.955 C 211.832 251.654, 215 249.474, 215 249.109 C 215 248.460, 200.437 240.925, 194.500 238.502 C 191.913 237.447, 191.018 237.555, 188 239.285 M 77.789 315.599 C 46.533 342.177, 18.141 370.750, 7.152 386.685 L 4.956 389.871 19.421 399.945 C 27.377 405.486, 34.529 410.266, 35.315 410.567 C 36.257 410.929, 37.694 409.479, 39.540 406.308 C 47.447 392.720, 61.482 376.462, 91.372 346.268 C 104.021 333.491, 114.174 322.870, 113.935 322.667 C 110.577 319.817, 90.788 306, 90.062 306 C 89.521 306, 83.998 310.320, 77.789 315.599" stroke="none" fill="black" fill-rule="evenodd"/>
</svg>